PathFileType	4	(X/Y/Z)	..\data\2014019\dynamic\2014019_C5_03.trc
DataRate	CameraRate	NumFrames	NumMarkers	Units	OrigDataRate	OrigDataStartFrame	OrigNumFrames
100.000000	100.000000	4	52	mm	100.000000	106	142
Frame#	Time	L_IAS			L_IPS			R_IPS			R_IAS			L_FTC			L_FLE			L_FME			L_FAX			L_TTC			L_FAL			L_TAM			L_FCC			L_FM1			L_FM2			L_FM5			R_FTC			R_FLE			R_FME			R_FAX			R_TTC			R_FAL			R_TAM			R_FCC			R_FM1			R_FM2			R_FM5			CV7			TV10			SXS			SJN			L_SIA			L_SRS			L_SAA			L_SAE			L_HLE			L_HME			L_UOA			L_RSP			L_UHE			L_HM2			L_HM5			R_SIA			R_SRS			R_SAA			R_SAE			R_HLE			R_HME			R_UOA			R_RSP			R_UHE			R_HM2			R_HM5			
		X1	Y1	Z1	X2	Y2	Z2	X3	Y3	Z3	X4	Y4	Z4	X5	Y5	Z5	X6	Y6	Z6	X7	Y7	Z7	X8	Y8	Z8	X9	Y9	Z9	X10	Y10	Z10	X11	Y11	Z11	X12	Y12	Z12	X13	Y13	Z13	X14	Y14	Z14	X15	Y15	Z15	X16	Y16	Z16	X17	Y17	Z17	X18	Y18	Z18	X19	Y19	Z19	X20	Y20	Z20	X21	Y21	Z21	X22	Y22	Z22	X23	Y23	Z23	X24	Y24	Z24	X25	Y25	Z25	X26	Y26	Z26	X27	Y27	Z27	X28	Y28	Z28	X29	Y29	Z29	X30	Y30	Z30	X31	Y31	Z31	X32	Y32	Z32	X33	Y33	Z33	X34	Y34	Z34	X35	Y35	Z35	X36	Y36	Z36	X37	Y37	Z37	X38	Y38	Z38	X39	Y39	Z39	X40	Y40	Z40	X41	Y41	Z41	X42	Y42	Z42	X43	Y43	Z43	X44	Y44	Z44	X45	Y45	Z45	X46	Y46	Z46	X47	Y47	Z47	X48	Y48	Z48	X49	Y49	Z49	X50	Y50	Z50	X51	Y51	Z51	X52	Y52	Z52	

107	1.06	543.8290405273439	937.4997558593752	127.5223999023438	325.4445495605469	982.4178466796877	174.6140289306641	313.3103942871094	962.5185546875002	270.4212036132814	508.1838073730469	902.508728027344	352.5377197265626	482.1724243164064	885.0548095703127	24.70536041259772	562.3122558593751	469.0491027832032	95.25705718994149	521.6721801757814	453.7854919433595	223.9603881835939	546.0628662109376	409.0873107910157	89.65774536132821	588.9119262695314	402.9521484375001	148.6219940185548	530.2881469726564	58.5626792907715	144.7125701904298	550.1450805664064	88.66209411621095	235.5318908691407	484.9494628906251	17.25893020629883	188.2627105712891	672.2425537109376	23.44670867919922	248.9307403564455	691.2193603515626	33.79003906250001	195.2003021240236	661.3678588867189	12.91543674468994	138.246795654297	386.1197814941407	824.6206665039065	416.3513488769533	391.5428466796876	427.1158447265626	376.6279907226564	415.2844543457032	403.387176513672	243.9390563964845	341.4004516601562	402.2225646972657	382.2388000488282	378.7674865722656	343.8583068847657	334.8890075683595	49.74056625366208	235.1875305175782	334.2164916992188	78.54153442382811	216.1797637939454	250.0012512207032	5.01135730743405	260.0310668945313	271.7801513671876	51.75453948974608	80.36942291259767	237.0599822998047	51.92591857910154	66.68452453613283	294.8027648925782	13.83839607238766	94.04144287109376	339.1465759277344	362.4292907714844	1458.198852539063	234.0246582031251	295.1243591308594	1244.473022460938	242.6038970947266	527.8206176757814	1142.901245117188	249.9705963134767	486.2297058105469	1371.092895507813	240.7691802978517	291.3796691894532	1276.8447265625	165.2463684082032	339.4289245605469	1402.233764648438	125.4361267089844	373.7826232910157	1391.17236328125	65.31963348388678	422.7014770507814	1402.141357421875	52.19396972656256	284.4701843261719	1098.945434570313	29.92938804626469	278.3746948242188	1101.179565429688	98.49789428710943	265.1106872558594	1085.882568359375	74.65767669677739	264.9662475585938	849.0070800781252	-9.538075447082489	200.8438262939454	882.9876708984377	-10.36535835266111	239.6278228759766	770.9475708007815	-46.27162170410154	152.978744506836	811.7858886718752	-13.07262897491453	284.2908630371094	1279.711547851563	317.3035583496095	324.3072814941406	1411.853271484375	339.4198608398439	364.4264221191406	1418.5234375	401.9330444335939	402.2403564453126	1435.3837890625	405.0610351562502	393.7686157226563	1110.738159179688	503.3070373535158	358.2002258300781	1092.771362304688	432.8776245117189	365.5645751953125	1066.534545898438	474.2851562500002	607.0609741210938	978.143737792969	477.8526611328127	564.004638671875	938.6541137695315	516.3582763671877	685.5593872070312	940.6985473632815	502.5704345703127	615.0828247070312	868.461608886719	507.5430908203127	
108	1.07	560.4593505859376	939.6743774414065	127.3839645385743	342.5340881347657	985.3252563476565	174.4258270263672	330.3595275878906	964.4809570312502	269.8989257812501	524.8900146484376	905.444519042969	352.9295959472657	497.2830505371095	886.5989990234377	24.65076065063483	567.8187866210939	468.5978393554689	94.61586761474618	526.4385986328126	454.245574951172	223.3590850830079	550.4841308593751	408.9863891601564	89.02059173583993	593.5979614257814	402.3147583007814	148.0367279052736	530.7413330078126	58.89443588256837	144.9104461669923	550.5595703125001	89.07840728759767	235.7018127441407	485.2802124023439	17.64226722717286	188.1881408691407	672.1497802734376	22.90450286865235	249.2083282470705	691.5339965820314	33.6969108581543	195.7404174804689	661.4510498046876	13.53781509399414	137.7525329589845	404.1985168457032	825.2429199218752	415.889617919922	424.6584167480469	427.7253417968751	377.5408020019532	448.1860656738282	404.6065673828126	244.4465332031251	375.4543151855469	402.6609497070314	383.1929931640626	412.6387634277344	345.0891113281251	335.0550842285157	82.73944091796872	238.545639038086	333.6915893554688	111.5796661376953	219.378158569336	249.5928802490235	37.41583633422849	262.3397216796876	271.1043395996094	88.27658843994139	82.74367523193361	239.2937927246094	87.96209716796872	69.7207489013672	297.3196411132813	49.28167724609372	97.76839447021487	340.5848083496094	381.0873718261719	1460.798828125	234.3202056884767	313.2594909667969	1247.197021484375	241.810775756836	545.1810302734376	1144.913330078125	251.2088317871095	504.5950927734376	1373.445190429688	241.7715606689454	309.9261474609376	1280.00048828125	164.3166961669922	358.7512512207032	1405.07421875	125.4421768188477	393.2662658691407	1394.143188476563	65.53744506835943	442.3279724121095	1404.987670898438	52.76981735229499	307.9710083007813	1099.568481445313	28.8481826782227	301.2519836425782	1101.787963867188	97.3126296997071	288.3635253906251	1085.999877929688	73.32492828369145	295.6221923828126	849.1877441406252	-10.64152431488034	230.5606079101563	881.2160644531252	-12.34091091156003	273.9615173339844	770.9112548828127	-48.16463851928709	185.2864532470703	807.9990234375002	-15.87777328491209	301.9595642089844	1282.514526367188	316.7170410156251	342.6305847167969	1414.615478515625	339.5105590820314	382.4389038085938	1421.035888671875	402.1473388671877	420.2970886230469	1437.47998046875	405.6520385742189	406.4556274414063	1112.856689453125	503.2265625000002	370.277587890625	1096.041137695313	432.7318725585939	376.7283020019531	1069.699462890625	474.2367553710939	614.8842163085938	972.0095825195315	477.6287536621095	570.1159057617188	934.5600585937502	516.3831787109377	691.3761596679688	929.8948364257815	501.8218688964845	617.2190551757812	862.1168212890627	507.4317321777345	
109	1.08	576.8698730468751	941.4400024414065	127.1910705566407	359.5073242187501	988.1280517578127	174.0486145019532	347.2384338378906	966.7601318359377	269.1649169921876	541.4352416992189	908.652770996094	353.491424560547	511.980682373047	887.6397705078127	24.66180419921882	572.6911621093751	468.0852966308595	94.13137817382821	530.5790405273439	454.6585693359376	222.9732818603517	554.2420654296876	408.8197021484376	88.54811096191415	597.7617797851564	401.6613159179689	147.6337738037111	531.1177978515626	59.17928695678712	145.1975860595704	550.9078979492189	89.43902587890626	235.9602813720704	485.561004638672	17.95734596252442	188.1859436035157	672.0301513671876	22.49512481689453	249.5742034912111	691.8083496093751	33.74782943725587	196.3457794189455	661.5262451171876	14.21821975708008	137.4696197509767	422.0446777343751	826.4238891601565	415.6212768554689	457.7035827636719	429.0527648925782	378.3808898925782	481.2793273925782	406.7268371582032	244.8642730712892	409.3847351074219	403.6559143066407	383.8967285156251	446.8151855468751	346.9050292968751	335.0911865234376	116.8196868896484	240.2513427734376	332.8740234375001	145.9671325683594	221.2164611816407	248.9256134033204	70.55738067626952	262.3367004394532	270.1765441894532	127.9624328613281	83.90443420410158	241.2913665771485	127.4940185546875	71.89975738525392	299.5152282714844	87.89205169677732	99.79158782958987	341.8579711914063	399.5893859863282	1463.305786132813	234.7319793701173	331.2830505371094	1249.826293945313	240.9175720214845	562.3941040039064	1146.98291015625	252.3965606689454	522.7987670898439	1375.754516601563	242.8389282226564	328.3249511718751	1283.136108398438	163.3447723388672	377.8246765136719	1407.884643554688	125.5949020385743	412.5126342773439	1397.197021484375	65.86859130859382	461.6656188964845	1407.9501953125	53.4350776672364	331.6983032226563	1100.164672851563	27.62091827392583	324.3435668945313	1102.315551757813	95.97324371337896	311.8579101562501	1086.00537109375	71.79335784912115	327.3385620117188	849.4597167968752	-11.75325584411617	261.3403320312501	879.302673339844	-14.52170753479001	309.7237854003907	770.9516601562502	-49.95388031005857	218.9719238281251	803.9795532226565	-18.86783218383787	319.6060791015625	1285.1171875	315.9449157714845	360.7962341308594	1417.21435546875	339.6029052734376	400.2792053222657	1423.390014648438	402.3854064941408	438.1852416992188	1439.45751953125	406.3271484375002	418.8829956054688	1114.919677734375	503.1040344238283	382.1941223144531	1099.354370117188	432.6002197265627	387.6928405761719	1072.917358398438	474.118865966797	621.9588623046875	965.5576782226565	477.5155029296877	575.400390625	930.3303833007815	516.5236816406252	696.123291015625	918.3557739257815	500.8900756835939	618.1193237304688	855.584411621094	507.205291748047	
110	1.09	593.1080322265626	942.7770996093752	126.9464416503907	376.3899841308594	990.7627563476565	173.5427703857423	363.988037109375	969.2492675781252	268.3338012695314	557.8985595703126	911.9962158203127	354.1465759277345	526.3967285156251	888.2451171875002	24.73905944824226	577.1589965820314	467.5495605468751	93.7993698120118	534.3088989257814	455.0611572265626	222.7846221923829	557.5895996093751	408.6247558593751	88.23706817626962	601.5839843750001	401.0018310546876	147.4125976562501	531.4455566406251	59.419002532959	145.540512084961	551.2267456054689	89.7287063598633	236.2776489257814	485.7751464843751	18.23135375976563	188.2326049804688	671.9144287109376	22.11593246459961	250.000701904297	692.0736083984376	33.82053756713868	196.9813079833986	661.6045532226564	14.83693981170655	137.3684692382814	439.7420959472657	828.0366821289065	415.5805664062502	490.5494689941407	431.0450744628907	379.1329040527345	514.4790039062501	409.6761474609376	245.2207641601564	443.0487060546876	405.1790466308595	384.3477478027345	481.1676330566407	349.2601623535157	335.0418395996095	151.868408203125	240.1865997314454	331.9202575683594	181.5707702636719	221.5459594726563	248.1483459472657	104.3833770751953	259.9869689941407	269.1611938476563	170.36767578125	83.80504608154298	243.1046752929688	170.0505065917969	73.09786224365236	301.4387817382813	129.2705688476562	100.0484848022461	343.0370788574219	417.9435119628907	1465.65869140625	235.228973388672	349.1944274902344	1252.302001953125	239.9429779052736	579.4854125976564	1149.075805664063	253.5070343017579	540.8519287109376	1377.968383789063	243.927947998047	346.5994567871094	1286.175903320313	162.3187561035157	396.6502380371095	1410.599975585938	125.8574447631837	431.5397949218751	1400.245483398438	66.26592254638679	480.7383117675782	1410.947021484375	54.15180206298835	355.6434936523438	1100.69677734375	26.2365283966065	347.6405334472657	1102.734375	94.46329498291021	335.5922546386719	1085.871215820313	70.04963684082037	360.0233764648438	849.858825683594	-12.83269596099849	293.1367187500001	877.3061523437502	-16.8744029998779	346.7604064941407	771.1351318359377	-51.55501937866208	253.9594726562501	799.8616333007815	-21.98385238647458	337.2342834472656	1287.471557617188	314.9876708984376	378.8034057617188	1419.592895507813	339.6582641601564	417.9453735351563	1425.531372070313	402.609832763672	455.9053039550782	1441.266235351563	407.0498962402345	431.0724792480469	1116.884155273438	502.904022216797	394.0249023437501	1102.651977539063	432.425994873047	398.5093078613282	1076.135620117188	473.8872375488283	628.285888671875	958.8696899414065	477.5256347656252	579.9063720703125	926.018493652344	516.770202636719	699.7938842773438	906.3431396484377	499.836608886719	617.9319458007812	849.0046997070315	506.8726806640627	
